<svg xmlns="http://www.w3.org/2000/svg" viewBox="0 0 1200 760" role="img" aria-labelledby="title desc">
  <title id="title">Cinematic digital operations map for Mohammad Alfarras</title>
  <desc id="desc">A dark Berlin-inspired digital scene connecting code, media, Android TV, and logistics.</desc>
  <defs>
    <radialGradient id="g1" cx="50%" cy="42%" r="55%">
      <stop offset="0%" stop-color="#22d3ee" stop-opacity=".72"/>
      <stop offset="38%" stop-color="#7c3aed" stop-opacity=".32"/>
      <stop offset="100%" stop-color="#020617" stop-opacity="0"/>
    </radialGradient>
    <linearGradient id="line" x1="0%" x2="100%" y1="0%" y2="100%">
      <stop offset="0%" stop-color="#67e8f9"/>
      <stop offset="52%" stop-color="#8b5cf6"/>
      <stop offset="100%" stop-color="#f4c96b"/>
    </linearGradient>
    <filter id="glow" x="-40%" y="-40%" width="180%" height="180%">
      <feGaussianBlur stdDeviation="8" result="blur"/>
      <feColorMatrix in="blur" type="matrix" values="0 0 0 0 0.22 0 0 0 0 0.82 0 0 0 0 1 0 0 0 .75 0"/>
      <feBlend in="SourceGraphic"/>
    </filter>
  </defs>
  <rect width="1200" height="760" fill="#030712"/>
  <rect width="1200" height="760" fill="url(#g1)" opacity=".75"/>
  <g opacity=".16" stroke="#cbd5e1" stroke-width="1">
    <path d="M0 586c162-26 279-26 350 0s154 30 249 12 191-11 288 19 201 26 313-10"/>
    <path d="M0 626c180-28 313-28 399 0s182 31 287 9 200-11 287 22 163 29 227 7"/>
    <path d="M0 666h1200"/>
    <path d="M0 707h1200"/>
  </g>
  <g filter="url(#glow)" fill="none" stroke="url(#line)" stroke-linecap="round">
    <path d="M192 226h188a30 30 0 0 1 30 30v88a30 30 0 0 1-30 30H192a30 30 0 0 1-30-30v-88a30 30 0 0 1 30-30Z" stroke-width="2" opacity=".88"/>
    <path d="M792 248h205a30 30 0 0 1 30 30v120a30 30 0 0 1-30 30H792a30 30 0 0 1-30-30V278a30 30 0 0 1 30-30Z" stroke-width="2" opacity=".88"/>
    <path d="M488 150h188a26 26 0 0 1 26 26v92a26 26 0 0 1-26 26H488a26 26 0 0 1-26-26v-92a26 26 0 0 1 26-26Z" stroke-width="2" opacity=".78"/>
    <path d="M568 428c98-75 178-75 240 0 64 78 146 78 247 0" stroke-width="4" opacity=".72"/>
    <circle cx="600" cy="360" r="132" stroke-width="4" opacity=".58"/>
    <path d="M520 407 596 244l80 163M562 338h72" stroke-width="11"/>
  </g>
  <g font-family="Inter, Arial, sans-serif" fill="#e2e8f0">
    <text x="218" y="278" font-size="28" font-weight="800">CONTENT</text>
    <text x="218" y="312" font-size="28" font-weight="800">CREATOR</text>
    <text x="488" y="205" font-size="26" font-weight="800">CODE</text>
    <text x="488" y="238" font-size="26" font-weight="800">DEVELOPER</text>
    <text x="802" y="315" font-size="26" font-weight="800">LOGISTICS</text>
    <text x="802" y="348" font-size="26" font-weight="800">&amp; TRANSPORT</text>
    <text x="410" y="668" font-size="42" font-weight="900" letter-spacing="8">MOHAMMAD ALFARRAS</text>
  </g>
  <g stroke="#67e8f9" stroke-width="2" opacity=".64">
    <path d="M220 334h130"/>
    <path d="M220 348h82"/>
    <path d="M512 252h126"/>
    <path d="M512 266h88"/>
    <path d="M832 378c20-36 65-51 112-44"/>
    <circle cx="936" cy="334" r="5" fill="#67e8f9"/>
    <circle cx="872" cy="363" r="5" fill="#a78bfa"/>
  </g>
</svg>
