<svg xmlns="http://www.w3.org/2000/svg" viewBox="0 0 60 40">
  <rect width="60" height="13.33" fill="#1FA35B"/>
  <rect y="13.33" width="60" height="13.34" fill="#FFFFFF"/>
  <rect y="26.67" width="60" height="13.33" fill="#111111"/>
  <polygon points="15,15 16.5,19.4 21.2,19.4 17.4,22.1 18.9,26.8 15,23.9 11.1,26.8 12.6,22.1 8.8,19.4 13.5,19.4" fill="#C32026"/>
  <polygon points="30,15 31.5,19.4 36.2,19.4 32.4,22.1 33.9,26.8 30,23.9 26.1,26.8 27.6,22.1 23.8,19.4 28.5,19.4" fill="#C32026"/>
  <polygon points="45,15 46.5,19.4 51.2,19.4 47.4,22.1 48.9,26.8 45,23.9 41.1,26.8 42.6,22.1 38.8,19.4 43.5,19.4" fill="#C32026"/>
</svg>
